<svg width="565" height="115" viewBox="0 0 565 115" fill="none" xmlns="http://www.w3.org/2000/svg">
    <path
        d="M116.657 40.6523C116.657 35.3656 112.357 31.0688 107.074 31.0688C101.787 31.0688 97.4871 35.3656 97.4871 40.6523C97.4871 45.939 101.787 50.2389 107.074 50.2389C112.356 50.2389 116.657 45.939 116.657 40.6523ZM102.514 40.6523C102.514 38.1391 104.559 36.0953 107.072 36.0953C109.582 36.0953 111.629 38.1375 111.629 40.6523C111.629 43.1671 109.584 45.2109 107.072 45.2109C104.559 45.2109 102.514 43.1655 102.514 40.6523Z"
        fill="url(#paint0_linear_91_26)" />
    <path
        d="M116.657 40.6523C116.657 35.3656 112.357 31.0688 107.074 31.0688C101.787 31.0688 97.4871 35.3656 97.4871 40.6523C97.4871 45.939 101.787 50.2389 107.074 50.2389C112.356 50.2389 116.657 45.939 116.657 40.6523ZM102.514 40.6523C102.514 38.1391 104.559 36.0953 107.072 36.0953C109.582 36.0953 111.629 38.1375 111.629 40.6523C111.629 43.1671 109.584 45.2109 107.072 45.2109C104.559 45.2109 102.514 43.1655 102.514 40.6523Z"
        fill="black" />
    <path
        d="M53.0442 17.4153C31.8351 17.4153 14.5794 34.6709 14.5794 55.88C14.5794 60.0347 15.2756 64.0919 16.5705 67.9895C10.4567 70.0939 6.04663 75.8884 6.04663 82.7063C6.04663 91.295 13.0338 98.2807 21.6241 98.2807C27.5623 98.2807 32.7292 94.9371 35.3558 90.0352C40.8006 92.8582 46.8569 94.3448 53.0442 94.3448C74.2533 94.3448 91.5089 77.0891 91.5089 55.88C91.5089 34.6709 74.2533 17.4153 53.0442 17.4153ZM78.2818 33.6602C82.074 37.9633 84.8123 43.2181 86.0178 49.0413C81.8376 46.4786 78.9237 42.1308 78.3185 37.1474C78.1764 35.9802 78.1732 34.8146 78.2818 33.6602ZM35.8077 27.0051C35.8987 27.722 35.9849 28.4358 36.1398 29.207C36.5007 31.1901 37.1841 33.0423 37.8467 34.8354C39.2039 38.5094 40.3759 41.6837 38.6642 45.2667C36.5518 49.7008 33.4749 49.9722 28.1403 48.9056L27.3435 48.7651C25.5249 48.4505 22.9893 48.0066 20.5144 47.3217C22.7786 38.7218 28.3543 31.4711 35.8077 27.0051ZM19.8486 50.4576C22.4097 51.1538 24.9565 51.5961 26.8007 51.9138L27.5511 52.0447C29.1446 52.3625 30.7972 52.6307 32.4211 52.6307C35.9338 52.6307 39.2965 51.3709 41.5479 46.6431C43.8439 41.8433 42.3175 37.7174 40.8437 33.7289C40.2019 31.9885 39.5951 30.3454 39.279 28.6082C39.0506 27.4634 38.9261 26.4032 38.851 25.3861C42.2201 23.8117 45.8734 22.7515 49.7342 22.3731C48.8975 26.3872 49.6256 30.8835 51.9425 36.2006C55.8656 45.4471 58.8786 54.3536 52.7073 61.7112C47.4733 68.1268 39.5616 66.2491 31.182 64.2627C27.7731 63.4516 24.2491 62.6165 21.0222 62.4537C20.6853 62.4377 20.3547 62.4409 20.0242 62.4377C19.5995 60.2885 19.3728 58.0994 19.3728 55.88C19.3696 54.0278 19.5596 52.2252 19.8486 50.4576ZM21.6241 93.2526C15.8057 93.2526 11.0747 88.5216 11.0747 82.7063C11.0747 76.8911 15.8073 72.1601 21.6241 72.1601C27.4378 72.1601 32.1688 76.8911 32.1688 82.7063C32.1688 88.5216 27.4378 93.2526 21.6241 93.2526ZM53.0442 89.5546C47.387 89.5546 41.8608 88.1288 36.9398 85.4447C37.0978 84.5521 37.1952 83.642 37.1952 82.7063C37.1952 80.9037 36.8711 79.1792 36.3043 77.5665C37.9313 77.7693 39.5616 78.1094 41.2206 78.614C44.4922 79.6455 47.2242 81.1719 50.1142 82.783C51.5241 83.5686 52.9835 84.3829 54.5419 85.1621C57.0439 86.4506 59.6833 87.4454 62.4169 88.1958C59.439 89.0644 56.2999 89.5546 53.0442 89.5546ZM67.8473 86.0802C63.6591 85.4447 59.6721 84.2088 55.9869 82.3167C54.4764 81.5583 53.049 80.7631 51.671 79.9967C48.6341 78.2994 45.7648 76.7011 42.1674 75.5659C39.6206 74.7899 37.1473 74.346 34.6533 74.2055C31.8686 69.955 27.0721 67.132 21.6241 67.132C21.5267 67.132 21.4341 67.1448 21.3367 67.148C21.1595 66.6482 20.9807 66.1501 20.8274 65.6455C20.8417 65.6487 20.8545 65.6455 20.8657 65.6455C23.7941 65.7924 27.0226 66.5588 30.4428 67.3699C34.4234 68.3152 38.6514 69.3163 42.6863 69.3163C47.32 69.3163 51.7014 67.9974 55.1646 63.7502C62.4759 55.0306 59.0318 44.7462 54.8708 34.9408C52.6338 29.8073 52.067 25.7725 53.0825 22.207C58.3037 22.2134 63.2296 23.4477 67.6429 25.5841C66.1548 28.9739 65.366 32.6639 65.366 36.3938C65.366 48.8832 74.0984 59.7297 86.045 62.5654C83.9533 72.9201 77.0779 81.536 67.8473 86.0802ZM68.561 36.3922C68.561 33.1924 69.2189 30.0341 70.4595 27.1137C72.2606 28.209 73.9499 29.4625 75.5083 30.866C75.0085 33.0487 74.876 35.2889 75.1458 37.5306C75.9729 44.3422 80.3783 50.2021 86.5687 52.9612C86.6517 53.9256 86.7156 54.8949 86.7156 55.88C86.7156 57.0616 86.6517 58.232 86.532 59.3848C76.1374 56.7933 68.561 47.3105 68.561 36.3922Z"
        fill="url(#paint1_linear_91_26)" />
    <path
        d="M53.0442 17.4153C31.8351 17.4153 14.5794 34.6709 14.5794 55.88C14.5794 60.0347 15.2756 64.0919 16.5705 67.9895C10.4567 70.0939 6.04663 75.8884 6.04663 82.7063C6.04663 91.295 13.0338 98.2807 21.6241 98.2807C27.5623 98.2807 32.7292 94.9371 35.3558 90.0352C40.8006 92.8582 46.8569 94.3448 53.0442 94.3448C74.2533 94.3448 91.5089 77.0891 91.5089 55.88C91.5089 34.6709 74.2533 17.4153 53.0442 17.4153ZM78.2818 33.6602C82.074 37.9633 84.8123 43.2181 86.0178 49.0413C81.8376 46.4786 78.9237 42.1308 78.3185 37.1474C78.1764 35.9802 78.1732 34.8146 78.2818 33.6602ZM35.8077 27.0051C35.8987 27.722 35.9849 28.4358 36.1398 29.207C36.5007 31.1901 37.1841 33.0423 37.8467 34.8354C39.2039 38.5094 40.3759 41.6837 38.6642 45.2667C36.5518 49.7008 33.4749 49.9722 28.1403 48.9056L27.3435 48.7651C25.5249 48.4505 22.9893 48.0066 20.5144 47.3217C22.7786 38.7218 28.3543 31.4711 35.8077 27.0051ZM19.8486 50.4576C22.4097 51.1538 24.9565 51.5961 26.8007 51.9138L27.5511 52.0447C29.1446 52.3625 30.7972 52.6307 32.4211 52.6307C35.9338 52.6307 39.2965 51.3709 41.5479 46.6431C43.8439 41.8433 42.3175 37.7174 40.8437 33.7289C40.2019 31.9885 39.5951 30.3454 39.279 28.6082C39.0506 27.4634 38.9261 26.4032 38.851 25.3861C42.2201 23.8117 45.8734 22.7515 49.7342 22.3731C48.8975 26.3872 49.6256 30.8835 51.9425 36.2006C55.8656 45.4471 58.8786 54.3536 52.7073 61.7112C47.4733 68.1268 39.5616 66.2491 31.182 64.2627C27.7731 63.4516 24.2491 62.6165 21.0222 62.4537C20.6853 62.4377 20.3547 62.4409 20.0242 62.4377C19.5995 60.2885 19.3728 58.0994 19.3728 55.88C19.3696 54.0278 19.5596 52.2252 19.8486 50.4576ZM21.6241 93.2526C15.8057 93.2526 11.0747 88.5216 11.0747 82.7063C11.0747 76.8911 15.8073 72.1601 21.6241 72.1601C27.4378 72.1601 32.1688 76.8911 32.1688 82.7063C32.1688 88.5216 27.4378 93.2526 21.6241 93.2526ZM53.0442 89.5546C47.387 89.5546 41.8608 88.1288 36.9398 85.4447C37.0978 84.5521 37.1952 83.642 37.1952 82.7063C37.1952 80.9037 36.8711 79.1792 36.3043 77.5665C37.9313 77.7693 39.5616 78.1094 41.2206 78.614C44.4922 79.6455 47.2242 81.1719 50.1142 82.783C51.5241 83.5686 52.9835 84.3829 54.5419 85.1621C57.0439 86.4506 59.6833 87.4454 62.4169 88.1958C59.439 89.0644 56.2999 89.5546 53.0442 89.5546ZM67.8473 86.0802C63.6591 85.4447 59.6721 84.2088 55.9869 82.3167C54.4764 81.5583 53.049 80.7631 51.671 79.9967C48.6341 78.2994 45.7648 76.7011 42.1674 75.5659C39.6206 74.7899 37.1473 74.346 34.6533 74.2055C31.8686 69.955 27.0721 67.132 21.6241 67.132C21.5267 67.132 21.4341 67.1448 21.3367 67.148C21.1595 66.6482 20.9807 66.1501 20.8274 65.6455C20.8417 65.6487 20.8545 65.6455 20.8657 65.6455C23.7941 65.7924 27.0226 66.5588 30.4428 67.3699C34.4234 68.3152 38.6514 69.3163 42.6863 69.3163C47.32 69.3163 51.7014 67.9974 55.1646 63.7502C62.4759 55.0306 59.0318 44.7462 54.8708 34.9408C52.6338 29.8073 52.067 25.7725 53.0825 22.207C58.3037 22.2134 63.2296 23.4477 67.6429 25.5841C66.1548 28.9739 65.366 32.6639 65.366 36.3938C65.366 48.8832 74.0984 59.7297 86.045 62.5654C83.9533 72.9201 77.0779 81.536 67.8473 86.0802ZM68.561 36.3922C68.561 33.1924 69.2189 30.0341 70.4595 27.1137C72.2606 28.209 73.9499 29.4625 75.5083 30.866C75.0085 33.0487 74.876 35.2889 75.1458 37.5306C75.9729 44.3422 80.3783 50.2021 86.5687 52.9612C86.6517 53.9256 86.7156 54.8949 86.7156 55.88C86.7156 57.0616 86.6517 58.232 86.532 59.3848C76.1374 56.7933 68.561 47.3105 68.561 36.3922Z"
        fill="black" />
    <path
        d="M64.2803 68.0423C64.2803 71.4385 67.0442 74.204 70.442 74.204C73.8414 74.204 76.6037 71.4385 76.6037 68.0423C76.6037 64.6429 73.8414 61.8806 70.442 61.8806C67.0442 61.8806 64.2803 64.6429 64.2803 68.0423ZM73.4119 68.0423C73.4119 69.6789 72.0802 71.0106 70.4436 71.0106C68.8069 71.0106 67.4753 69.6789 67.4753 68.0423C67.4753 66.4057 68.8069 65.074 70.4436 65.074C72.0802 65.074 73.4119 66.4057 73.4119 68.0423Z"
        fill="url(#paint2_linear_91_26)" />
    <path
        d="M64.2803 68.0423C64.2803 71.4385 67.0442 74.204 70.442 74.204C73.8414 74.204 76.6037 71.4385 76.6037 68.0423C76.6037 64.6429 73.8414 61.8806 70.442 61.8806C67.0442 61.8806 64.2803 64.6429 64.2803 68.0423ZM73.4119 68.0423C73.4119 69.6789 72.0802 71.0106 70.4436 71.0106C68.8069 71.0106 67.4753 69.6789 67.4753 68.0423C67.4753 66.4057 68.8069 65.074 70.4436 65.074C72.0802 65.074 73.4119 66.4057 73.4119 68.0423Z"
        fill="black" />
    <path
        d="M95.3442 22.2597C96.5276 22.2597 97.487 21.3003 97.487 20.1169C97.487 18.9335 96.5276 17.9741 95.3442 17.9741C94.1608 17.9741 93.2014 18.9335 93.2014 20.1169C93.2014 21.3003 94.1608 22.2597 95.3442 22.2597Z"
        fill="url(#paint3_linear_91_26)" />
    <path
        d="M95.3442 22.2597C96.5276 22.2597 97.487 21.3003 97.487 20.1169C97.487 18.9335 96.5276 17.9741 95.3442 17.9741C94.1608 17.9741 93.2014 18.9335 93.2014 20.1169C93.2014 21.3003 94.1608 22.2597 95.3442 22.2597Z"
        fill="black" />
    <path
        d="M6.04659 68.3583C7.23002 68.3583 8.18938 67.399 8.18938 66.2155C8.18938 65.0321 7.23002 64.0728 6.04659 64.0728C4.86317 64.0728 3.90381 65.0321 3.90381 66.2155C3.90381 67.399 4.86317 68.3583 6.04659 68.3583Z"
        fill="url(#paint4_linear_91_26)" />
    <path
        d="M6.04659 68.3583C7.23002 68.3583 8.18938 67.399 8.18938 66.2155C8.18938 65.0321 7.23002 64.0728 6.04659 64.0728C4.86317 64.0728 3.90381 65.0321 3.90381 66.2155C3.90381 67.399 4.86317 68.3583 6.04659 68.3583Z"
        fill="black" />
    <path
        d="M93.1982 107.05C94.3816 107.05 95.341 106.091 95.341 104.907C95.341 103.724 94.3816 102.764 93.1982 102.764C92.0148 102.764 91.0554 103.724 91.0554 104.907C91.0554 106.091 92.0148 107.05 93.1982 107.05Z"
        fill="url(#paint5_linear_91_26)" />
    <path
        d="M93.1982 107.05C94.3816 107.05 95.341 106.091 95.341 104.907C95.341 103.724 94.3816 102.764 93.1982 102.764C92.0148 102.764 91.0554 103.724 91.0554 104.907C91.0554 106.091 92.0148 107.05 93.1982 107.05Z"
        fill="black" />
    <path
        d="M14.1706 9.65056C15.354 9.65056 16.3134 8.6912 16.3134 7.50777C16.3134 6.32435 15.354 5.36499 14.1706 5.36499C12.9872 5.36499 12.0278 6.32435 12.0278 7.50777C12.0278 8.6912 12.9872 9.65056 14.1706 9.65056Z"
        fill="url(#paint6_linear_91_26)" />
    <path
        d="M14.1706 9.65056C15.354 9.65056 16.3134 8.6912 16.3134 7.50777C16.3134 6.32435 15.354 5.36499 14.1706 5.36499C12.9872 5.36499 12.0278 6.32435 12.0278 7.50777C12.0278 8.6912 12.9872 9.65056 14.1706 9.65056Z"
        fill="black" />
    <path
        d="M116.657 78.4926C117.841 78.4926 118.8 77.5332 118.8 76.3498C118.8 75.1664 117.841 74.207 116.657 74.207C115.474 74.207 114.514 75.1664 114.514 76.3498C114.514 77.5332 115.474 78.4926 116.657 78.4926Z"
        fill="url(#paint7_linear_91_26)" />
    <path
        d="M116.657 78.4926C117.841 78.4926 118.8 77.5332 118.8 76.3498C118.8 75.1664 117.841 74.207 116.657 74.207C115.474 74.207 114.514 75.1664 114.514 76.3498C114.514 77.5332 115.474 78.4926 116.657 78.4926Z"
        fill="black" />
    <path
        d="M29.4959 5.36494C29.988 5.36494 30.3869 4.96604 30.3869 4.47397C30.3869 3.98191 29.988 3.58301 29.4959 3.58301C29.0039 3.58301 28.605 3.98191 28.605 4.47397C28.605 4.96604 29.0039 5.36494 29.4959 5.36494Z"
        fill="url(#paint8_linear_91_26)" />
    <path
        d="M29.4959 5.36494C29.988 5.36494 30.3869 4.96604 30.3869 4.47397C30.3869 3.98191 29.988 3.58301 29.4959 3.58301C29.0039 3.58301 28.605 3.98191 28.605 4.47397C28.605 4.96604 29.0039 5.36494 29.4959 5.36494Z"
        fill="black" />
    <path
        d="M2.67295 51.1298C3.16501 51.1298 3.56391 50.7309 3.56391 50.2389C3.56391 49.7468 3.16501 49.3479 2.67295 49.3479C2.18088 49.3479 1.78198 49.7468 1.78198 50.2389C1.78198 50.7309 2.18088 51.1298 2.67295 51.1298Z"
        fill="url(#paint9_linear_91_26)" />
    <path
        d="M2.67295 51.1298C3.16501 51.1298 3.56391 50.7309 3.56391 50.2389C3.56391 49.7468 3.16501 49.3479 2.67295 49.3479C2.18088 49.3479 1.78198 49.7468 1.78198 50.2389C1.78198 50.7309 2.18088 51.1298 2.67295 51.1298Z"
        fill="black" />
    <path
        d="M1.78197 26.7624C2.27491 26.7624 2.67453 26.3628 2.67453 25.8699C2.67453 25.3769 2.27491 24.9773 1.78197 24.9773C1.28902 24.9773 0.889404 25.3769 0.889404 25.8699C0.889404 26.3628 1.28902 26.7624 1.78197 26.7624Z"
        fill="url(#paint10_linear_91_26)" />
    <path
        d="M1.78197 26.7624C2.27491 26.7624 2.67453 26.3628 2.67453 25.8699C2.67453 25.3769 2.27491 24.9773 1.78197 24.9773C1.28902 24.9773 0.889404 25.3769 0.889404 25.8699C0.889404 26.3628 1.28902 26.7624 1.78197 26.7624Z"
        fill="black" />
    <path
        d="M56.0108 8.39887C56.5029 8.39887 56.9018 7.99997 56.9018 7.50791C56.9018 7.01584 56.5029 6.61694 56.0108 6.61694C55.5188 6.61694 55.1199 7.01584 55.1199 7.50791C55.1199 7.99997 55.5188 8.39887 56.0108 8.39887Z"
        fill="url(#paint11_linear_91_26)" />
    <path
        d="M56.0108 8.39887C56.5029 8.39887 56.9018 7.99997 56.9018 7.50791C56.9018 7.01584 56.5029 6.61694 56.0108 6.61694C55.5188 6.61694 55.1199 7.01584 55.1199 7.50791C55.1199 7.99997 55.5188 8.39887 56.0108 8.39887Z"
        fill="black" />
    <path
        d="M87.7184 1.78193C88.2104 1.78193 88.6093 1.38303 88.6093 0.890963C88.6093 0.398898 88.2104 0 87.7184 0C87.2263 0 86.8274 0.398898 86.8274 0.890963C86.8274 1.38303 87.2263 1.78193 87.7184 1.78193Z"
        fill="url(#paint12_linear_91_26)" />
    <path
        d="M87.7184 1.78193C88.2104 1.78193 88.6093 1.38303 88.6093 0.890963C88.6093 0.398898 88.2104 0 87.7184 0C87.2263 0 86.8274 0.398898 86.8274 0.890963C86.8274 1.38303 87.2263 1.78193 87.7184 1.78193Z"
        fill="black" />
    <path
        d="M116.656 22.1608C117.148 22.1608 117.547 21.7619 117.547 21.2699C117.547 20.7778 117.148 20.3789 116.656 20.3789C116.164 20.3789 115.765 20.7778 115.765 21.2699C115.765 21.7619 116.164 22.1608 116.656 22.1608Z"
        fill="url(#paint13_linear_91_26)" />
    <path
        d="M116.656 22.1608C117.148 22.1608 117.547 21.7619 117.547 21.2699C117.547 20.7778 117.148 20.3789 116.656 20.3789C116.164 20.3789 115.765 20.7778 115.765 21.2699C115.765 21.7619 116.164 22.1608 116.656 22.1608Z"
        fill="black" />
    <path
        d="M95.3426 82.8293C95.8347 82.8293 96.2336 82.4304 96.2336 81.9383C96.2336 81.4463 95.8347 81.0474 95.3426 81.0474C94.8506 81.0474 94.4517 81.4463 94.4517 81.9383C94.4517 82.4304 94.8506 82.8293 95.3426 82.8293Z"
        fill="url(#paint14_linear_91_26)" />
    <path
        d="M95.3426 82.8293C95.8347 82.8293 96.2336 82.4304 96.2336 81.9383C96.2336 81.4463 95.8347 81.0474 95.3426 81.0474C94.8506 81.0474 94.4517 81.4463 94.4517 81.9383C94.4517 82.4304 94.8506 82.8293 95.3426 82.8293Z"
        fill="black" />
    <path
        d="M113.025 98.2824C113.517 98.2824 113.916 97.8835 113.916 97.3915C113.916 96.8994 113.517 96.5005 113.025 96.5005C112.533 96.5005 112.134 96.8994 112.134 97.3915C112.134 97.8835 112.533 98.2824 113.025 98.2824Z"
        fill="url(#paint15_linear_91_26)" />
    <path
        d="M113.025 98.2824C113.517 98.2824 113.916 97.8835 113.916 97.3915C113.916 96.8994 113.517 96.5005 113.025 96.5005C112.533 96.5005 112.134 96.8994 112.134 97.3915C112.134 97.8835 112.533 98.2824 113.025 98.2824Z"
        fill="black" />
    <path
        d="M107.072 67.1081C107.565 67.1081 107.965 66.7085 107.965 66.2156C107.965 65.7226 107.565 65.323 107.072 65.323C106.579 65.323 106.179 65.7226 106.179 66.2156C106.179 66.7085 106.579 67.1081 107.072 67.1081Z"
        fill="url(#paint16_linear_91_26)" />
    <path
        d="M107.072 67.1081C107.565 67.1081 107.965 66.7085 107.965 66.2156C107.965 65.7226 107.565 65.323 107.072 65.323C106.579 65.323 106.179 65.7226 106.179 66.2156C106.179 66.7085 106.579 67.1081 107.072 67.1081Z"
        fill="black" />
    <path
        d="M65.1712 104.545C65.6633 104.545 66.0622 104.146 66.0622 103.654C66.0622 103.162 65.6633 102.763 65.1712 102.763C64.6792 102.763 64.2803 103.162 64.2803 103.654C64.2803 104.146 64.6792 104.545 65.1712 104.545Z"
        fill="url(#paint17_linear_91_26)" />
    <path
        d="M65.1712 104.545C65.6633 104.545 66.0622 104.146 66.0622 103.654C66.0622 103.162 65.6633 102.763 65.1712 102.763C64.6792 102.763 64.2803 103.162 64.2803 103.654C64.2803 104.146 64.6792 104.545 65.1712 104.545Z"
        fill="black" />
    <path
        d="M16.3136 114.181C16.8056 114.181 17.2045 113.782 17.2045 113.29C17.2045 112.798 16.8056 112.399 16.3136 112.399C15.8215 112.399 15.4226 112.798 15.4226 113.29C15.4226 113.782 15.8215 114.181 16.3136 114.181Z"
        fill="url(#paint18_linear_91_26)" />
    <path
        d="M16.3136 114.181C16.8056 114.181 17.2045 113.782 17.2045 113.29C17.2045 112.798 16.8056 112.399 16.3136 112.399C15.8215 112.399 15.4226 112.798 15.4226 113.29C15.4226 113.782 15.8215 114.181 16.3136 114.181Z"
        fill="black" />
    <path
        d="M39.3253 103.655C39.8174 103.655 40.2163 103.256 40.2163 102.764C40.2163 102.272 39.8174 101.873 39.3253 101.873C38.8332 101.873 38.4343 102.272 38.4343 102.764C38.4343 103.256 38.8332 103.655 39.3253 103.655Z"
        fill="url(#paint19_linear_91_26)" />
    <path
        d="M39.3253 103.655C39.8174 103.655 40.2163 103.256 40.2163 102.764C40.2163 102.272 39.8174 101.873 39.3253 101.873C38.8332 101.873 38.4343 102.272 38.4343 102.764C38.4343 103.256 38.8332 103.655 39.3253 103.655Z"
        fill="black" />
    <path
        d="M0.890963 102.764C1.38303 102.764 1.78193 102.365 1.78193 101.873C1.78193 101.381 1.38303 100.982 0.890963 100.982C0.398898 100.982 0 101.381 0 101.873C0 102.365 0.398898 102.764 0.890963 102.764Z"
        fill="url(#paint20_linear_91_26)" />
    <path
        d="M0.890963 102.764C1.38303 102.764 1.78193 102.365 1.78193 101.873C1.78193 101.381 1.38303 100.982 0.890963 100.982C0.398898 100.982 0 101.381 0 101.873C0 102.365 0.398898 102.764 0.890963 102.764Z"
        fill="black" />
    <path
        d="M162.95 82.0903V43.6903C162.95 42.2823 163.291 41.0023 163.974 39.8503C164.656 38.6557 165.574 37.717 166.726 37.0343C167.92 36.3517 169.222 36.0103 170.63 36.0103H201.35C202.758 36.0103 204.038 36.3517 205.19 37.0343C206.384 37.717 207.323 38.6557 208.006 39.8503C208.688 41.0023 209.03 42.2823 209.03 43.6903V82.0903H203.846V65.2583H168.134V82.0903H162.95ZM168.134 60.0743H203.846V43.6903C203.846 43.0077 203.59 42.4317 203.078 41.9623C202.608 41.4503 202.032 41.1943 201.35 41.1943H170.63C169.947 41.1943 169.35 41.4503 168.838 41.9623C168.368 42.4317 168.134 43.0077 168.134 43.6903V60.0743ZM223.554 82.0903C222.146 82.0903 220.844 81.749 219.65 81.0663C218.498 80.341 217.559 79.4023 216.834 78.2503C216.151 77.0557 215.81 75.7543 215.81 74.3463V73.8343H221.058V74.3463C221.058 75.029 221.292 75.6263 221.762 76.1383C222.274 76.6077 222.871 76.8423 223.554 76.8423H245.826C246.508 76.8423 247.084 76.6077 247.554 76.1383C248.066 75.6263 248.322 75.029 248.322 74.3463V68.6503C248.322 67.9677 248.066 67.3917 247.554 66.9223C247.084 66.4103 246.508 66.1543 245.826 66.1543H223.554C222.146 66.1543 220.844 65.813 219.65 65.1303C218.498 64.405 217.559 63.4663 216.834 62.3143C216.151 61.1197 215.81 59.8183 215.81 58.4103V52.7143C215.81 51.3063 216.151 50.0263 216.834 48.8743C217.559 47.6797 218.498 46.741 219.65 46.0583C220.844 45.333 222.146 44.9703 223.554 44.9703H245.826C247.276 44.9703 248.578 45.333 249.73 46.0583C250.924 46.741 251.863 47.6797 252.546 48.8743C253.271 50.0263 253.634 51.3063 253.634 52.7143V53.2263H248.322V52.7143C248.322 52.0317 248.066 51.4557 247.554 50.9863C247.084 50.4743 246.508 50.2183 245.826 50.2183H223.554C222.871 50.2183 222.274 50.4743 221.762 50.9863C221.292 51.4557 221.058 52.0317 221.058 52.7143V58.4103C221.058 59.093 221.292 59.6903 221.762 60.2023C222.274 60.6717 222.871 60.9063 223.554 60.9063H245.826C247.276 60.9063 248.578 61.269 249.73 61.9943C250.924 62.677 251.863 63.6157 252.546 64.8103C253.271 65.9623 253.634 67.2423 253.634 68.6503V74.3463C253.634 75.7543 253.271 77.0557 252.546 78.2503C251.863 79.4023 250.924 80.341 249.73 81.0663C248.578 81.749 247.276 82.0903 245.826 82.0903H223.554ZM267.749 82.0903C266.298 82.0903 264.975 81.749 263.781 81.0663C262.629 80.341 261.711 79.4023 261.029 78.2503C260.346 77.0557 260.005 75.7543 260.005 74.3463V32.8103H265.253V44.9703H281.317V50.2183H265.253V74.3463C265.253 75.029 265.487 75.6263 265.957 76.1383C266.469 76.6077 267.066 76.8423 267.749 76.8423H281.317V82.0903H267.749ZM286.191 82.0903V52.7143C286.191 51.3063 286.532 50.0263 287.215 48.8743C287.94 47.6797 288.879 46.741 290.031 46.0583C291.225 45.333 292.527 44.9703 293.935 44.9703H314.799V50.2183H293.935C293.252 50.2183 292.655 50.4743 292.143 50.9863C291.673 51.4557 291.439 52.0317 291.439 52.7143V82.0903H286.191ZM326.621 82.0903C325.213 82.0903 323.911 81.749 322.717 81.0663C321.565 80.341 320.626 79.4023 319.901 78.2503C319.218 77.0557 318.877 75.7543 318.877 74.3463V52.7143C318.877 51.3063 319.218 50.0263 319.901 48.8743C320.626 47.6797 321.565 46.741 322.717 46.0583C323.911 45.333 325.213 44.9703 326.621 44.9703H348.893C350.343 44.9703 351.645 45.333 352.797 46.0583C353.991 46.741 354.93 47.6797 355.613 48.8743C356.338 50.0263 356.701 51.3063 356.701 52.7143V74.3463C356.701 75.7543 356.338 77.0557 355.613 78.2503C354.93 79.4023 353.991 80.341 352.797 81.0663C351.645 81.749 350.343 82.0903 348.893 82.0903H326.621ZM326.621 76.8423H348.893C349.575 76.8423 350.151 76.6077 350.621 76.1383C351.133 75.6263 351.389 75.029 351.389 74.3463V52.7143C351.389 52.0317 351.133 51.4557 350.621 50.9863C350.151 50.4743 349.575 50.2183 348.893 50.2183H326.621C325.938 50.2183 325.341 50.4743 324.829 50.9863C324.359 51.4557 324.125 52.0317 324.125 52.7143V74.3463C324.125 75.029 324.359 75.6263 324.829 76.1383C325.341 76.6077 325.938 76.8423 326.621 76.8423ZM363.701 82.0903V36.0103H400.117C401.525 36.0103 402.805 36.3517 403.957 37.0343C405.152 37.717 406.09 38.6557 406.773 39.8503C407.456 41.0023 407.797 42.2823 407.797 43.6903V53.4823C407.797 54.0797 407.712 54.677 407.541 55.2743C407.413 55.829 407.221 56.3623 406.965 56.8743C407.904 58.2823 408.608 59.4983 409.077 60.5223C409.546 61.5463 409.781 62.5917 409.781 63.6583V74.4103C409.781 75.8183 409.44 77.1197 408.757 78.3143C408.074 79.4663 407.136 80.3837 405.941 81.0663C404.789 81.749 403.509 82.0903 402.101 82.0903H363.701ZM371.381 76.9063H402.101C402.784 76.9063 403.36 76.6717 403.829 76.2023C404.341 75.6903 404.597 75.093 404.597 74.4103V63.6583C404.597 62.9757 404.341 62.3997 403.829 61.9303C403.36 61.4183 402.784 61.1623 402.101 61.1623H371.381C370.698 61.1623 370.101 61.4183 369.589 61.9303C369.12 62.3997 368.885 62.9757 368.885 63.6583V74.4103C368.885 75.093 369.12 75.6903 369.589 76.2023C370.101 76.6717 370.698 76.9063 371.381 76.9063ZM371.381 55.9783H400.117C400.8 55.9783 401.376 55.7437 401.845 55.2743C402.314 54.7623 402.549 54.165 402.549 53.4823V43.6903C402.549 43.0077 402.314 42.4317 401.845 41.9623C401.376 41.4503 400.8 41.1943 400.117 41.1943H371.381C370.698 41.1943 370.101 41.4503 369.589 41.9623C369.12 42.4317 368.885 43.0077 368.885 43.6903V53.4823C368.885 54.165 369.12 54.7623 369.589 55.2743C370.101 55.7437 370.698 55.9783 371.381 55.9783ZM424.183 82.0903C422.775 82.0903 421.474 81.749 420.279 81.0663C419.127 80.341 418.188 79.4023 417.463 78.2503C416.78 77.0557 416.439 75.7543 416.439 74.3463V52.7143C416.439 51.3063 416.78 50.0263 417.463 48.8743C418.188 47.6797 419.127 46.741 420.279 46.0583C421.474 45.333 422.775 44.9703 424.183 44.9703H446.455C447.906 44.9703 449.207 45.333 450.359 46.0583C451.554 46.741 452.492 47.6797 453.175 48.8743C453.9 50.0263 454.263 51.3063 454.263 52.7143V74.3463C454.263 75.7543 453.9 77.0557 453.175 78.2503C452.492 79.4023 451.554 80.341 450.359 81.0663C449.207 81.749 447.906 82.0903 446.455 82.0903H424.183ZM424.183 76.8423H446.455C447.138 76.8423 447.714 76.6077 448.183 76.1383C448.695 75.6263 448.951 75.029 448.951 74.3463V52.7143C448.951 52.0317 448.695 51.4557 448.183 50.9863C447.714 50.4743 447.138 50.2183 446.455 50.2183H424.183C423.5 50.2183 422.903 50.4743 422.391 50.9863C421.922 51.4557 421.687 52.0317 421.687 52.7143V74.3463C421.687 75.029 421.922 75.6263 422.391 76.1383C422.903 76.6077 423.5 76.8423 424.183 76.8423ZM468.496 82.0903C467.088 82.0903 465.786 81.749 464.592 81.0663C463.44 80.341 462.501 79.4023 461.776 78.2503C461.093 77.0557 460.752 75.7543 460.752 74.3463V52.7143C460.752 51.3063 461.093 50.0263 461.776 48.8743C462.501 47.6797 463.44 46.741 464.592 46.0583C465.786 45.333 467.088 44.9703 468.496 44.9703H490.768C492.218 44.9703 493.52 45.333 494.672 46.0583C495.866 46.741 496.805 47.6797 497.488 48.8743C498.213 50.0263 498.576 51.3063 498.576 52.7143V74.3463C498.576 75.7543 498.213 77.0557 497.488 78.2503C496.805 79.4023 495.866 80.341 494.672 81.0663C493.52 81.749 492.218 82.0903 490.768 82.0903H468.496ZM468.496 76.8423H490.768C491.45 76.8423 492.026 76.6077 492.496 76.1383C493.008 75.6263 493.264 75.029 493.264 74.3463V52.7143C493.264 52.0317 493.008 51.4557 492.496 50.9863C492.026 50.4743 491.45 50.2183 490.768 50.2183H468.496C467.813 50.2183 467.216 50.4743 466.704 50.9863C466.234 51.4557 466 52.0317 466 52.7143V74.3463C466 75.029 466.234 75.6263 466.704 76.1383C467.216 76.6077 467.813 76.8423 468.496 76.8423ZM505.256 82.0903V44.9703H554.28C555.731 44.9703 557.032 45.333 558.184 46.0583C559.379 46.741 560.317 47.6797 561 48.8743C561.683 50.0263 562.024 51.3063 562.024 52.7143V82.0903H556.84V52.7143C556.84 52.0317 556.584 51.4557 556.072 50.9863C555.56 50.4743 554.963 50.2183 554.28 50.2183H538.856C538.173 50.2183 537.576 50.4743 537.064 50.9863C536.595 51.4557 536.36 52.0317 536.36 52.7143V82.0903H531.048V52.7143C531.048 52.0317 530.792 51.4557 530.28 50.9863C529.811 50.4743 529.235 50.2183 528.552 50.2183H513.064C512.381 50.2183 511.784 50.4743 511.272 50.9863C510.803 51.4557 510.568 52.0317 510.568 52.7143V82.0903H505.256Z"
        fill="black" />
    <defs>
        <linearGradient id="paint0_linear_91_26" x1="97.4871" y1="31.0688" x2="116.657" y2="31.0688"
            gradientUnits="userSpaceOnUse">
            <stop stop-color="#3C2811" />
            <stop offset="0.5" stop-color="#C6BE7E" />
            <stop offset="1" stop-color="#3C2811" />
        </linearGradient>
        <linearGradient id="paint1_linear_91_26" x1="6.04663" y1="17.4153" x2="91.5089" y2="17.4153"
            gradientUnits="userSpaceOnUse">
            <stop stop-color="#3C2811" />
            <stop offset="0.5" stop-color="#C6BE7E" />
            <stop offset="1" stop-color="#3C2811" />
        </linearGradient>
        <linearGradient id="paint2_linear_91_26" x1="64.2803" y1="61.8806" x2="76.6037" y2="61.8806"
            gradientUnits="userSpaceOnUse">
            <stop stop-color="#3C2811" />
            <stop offset="0.5" stop-color="#C6BE7E" />
            <stop offset="1" stop-color="#3C2811" />
        </linearGradient>
        <linearGradient id="paint3_linear_91_26" x1="93.2014" y1="17.9741" x2="97.487" y2="17.9741"
            gradientUnits="userSpaceOnUse">
            <stop stop-color="#3C2811" />
            <stop offset="0.5" stop-color="#C6BE7E" />
            <stop offset="1" stop-color="#3C2811" />
        </linearGradient>
        <linearGradient id="paint4_linear_91_26" x1="3.90381" y1="64.0728" x2="8.18938" y2="64.0728"
            gradientUnits="userSpaceOnUse">
            <stop stop-color="#3C2811" />
            <stop offset="0.5" stop-color="#C6BE7E" />
            <stop offset="1" stop-color="#3C2811" />
        </linearGradient>
        <linearGradient id="paint5_linear_91_26" x1="91.0554" y1="102.764" x2="95.341" y2="102.764"
            gradientUnits="userSpaceOnUse">
            <stop stop-color="#3C2811" />
            <stop offset="0.5" stop-color="#C6BE7E" />
            <stop offset="1" stop-color="#3C2811" />
        </linearGradient>
        <linearGradient id="paint6_linear_91_26" x1="12.0278" y1="5.36499" x2="16.3134" y2="5.36499"
            gradientUnits="userSpaceOnUse">
            <stop stop-color="#3C2811" />
            <stop offset="0.5" stop-color="#C6BE7E" />
            <stop offset="1" stop-color="#3C2811" />
        </linearGradient>
        <linearGradient id="paint7_linear_91_26" x1="114.514" y1="74.207" x2="118.8" y2="74.207"
            gradientUnits="userSpaceOnUse">
            <stop stop-color="#3C2811" />
            <stop offset="0.5" stop-color="#C6BE7E" />
            <stop offset="1" stop-color="#3C2811" />
        </linearGradient>
        <linearGradient id="paint8_linear_91_26" x1="28.605" y1="3.58301" x2="30.3869" y2="3.58301"
            gradientUnits="userSpaceOnUse">
            <stop stop-color="#3C2811" />
            <stop offset="0.5" stop-color="#C6BE7E" />
            <stop offset="1" stop-color="#3C2811" />
        </linearGradient>
        <linearGradient id="paint9_linear_91_26" x1="1.78198" y1="49.3479" x2="3.56391" y2="49.3479"
            gradientUnits="userSpaceOnUse">
            <stop stop-color="#3C2811" />
            <stop offset="0.5" stop-color="#C6BE7E" />
            <stop offset="1" stop-color="#3C2811" />
        </linearGradient>
        <linearGradient id="paint10_linear_91_26" x1="0.889404" y1="24.9773" x2="2.67453" y2="24.9773"
            gradientUnits="userSpaceOnUse">
            <stop stop-color="#3C2811" />
            <stop offset="0.5" stop-color="#C6BE7E" />
            <stop offset="1" stop-color="#3C2811" />
        </linearGradient>
        <linearGradient id="paint11_linear_91_26" x1="55.1199" y1="6.61694" x2="56.9018" y2="6.61694"
            gradientUnits="userSpaceOnUse">
            <stop stop-color="#3C2811" />
            <stop offset="0.5" stop-color="#C6BE7E" />
            <stop offset="1" stop-color="#3C2811" />
        </linearGradient>
        <linearGradient id="paint12_linear_91_26" x1="86.8274" y1="0" x2="88.6093" y2="0"
            gradientUnits="userSpaceOnUse">
            <stop stop-color="#3C2811" />
            <stop offset="0.5" stop-color="#C6BE7E" />
            <stop offset="1" stop-color="#3C2811" />
        </linearGradient>
        <linearGradient id="paint13_linear_91_26" x1="115.765" y1="20.3789" x2="117.547" y2="20.3789"
            gradientUnits="userSpaceOnUse">
            <stop stop-color="#3C2811" />
            <stop offset="0.5" stop-color="#C6BE7E" />
            <stop offset="1" stop-color="#3C2811" />
        </linearGradient>
        <linearGradient id="paint14_linear_91_26" x1="94.4517" y1="81.0474" x2="96.2336" y2="81.0474"
            gradientUnits="userSpaceOnUse">
            <stop stop-color="#3C2811" />
            <stop offset="0.5" stop-color="#C6BE7E" />
            <stop offset="1" stop-color="#3C2811" />
        </linearGradient>
        <linearGradient id="paint15_linear_91_26" x1="112.134" y1="96.5005" x2="113.916" y2="96.5005"
            gradientUnits="userSpaceOnUse">
            <stop stop-color="#3C2811" />
            <stop offset="0.5" stop-color="#C6BE7E" />
            <stop offset="1" stop-color="#3C2811" />
        </linearGradient>
        <linearGradient id="paint16_linear_91_26" x1="106.179" y1="65.323" x2="107.965" y2="65.323"
            gradientUnits="userSpaceOnUse">
            <stop stop-color="#3C2811" />
            <stop offset="0.5" stop-color="#C6BE7E" />
            <stop offset="1" stop-color="#3C2811" />
        </linearGradient>
        <linearGradient id="paint17_linear_91_26" x1="64.2803" y1="102.763" x2="66.0622" y2="102.763"
            gradientUnits="userSpaceOnUse">
            <stop stop-color="#3C2811" />
            <stop offset="0.5" stop-color="#C6BE7E" />
            <stop offset="1" stop-color="#3C2811" />
        </linearGradient>
        <linearGradient id="paint18_linear_91_26" x1="15.4226" y1="112.399" x2="17.2045" y2="112.399"
            gradientUnits="userSpaceOnUse">
            <stop stop-color="#3C2811" />
            <stop offset="0.5" stop-color="#C6BE7E" />
            <stop offset="1" stop-color="#3C2811" />
        </linearGradient>
        <linearGradient id="paint19_linear_91_26" x1="38.4343" y1="101.873" x2="40.2163" y2="101.873"
            gradientUnits="userSpaceOnUse">
            <stop stop-color="#3C2811" />
            <stop offset="0.5" stop-color="#C6BE7E" />
            <stop offset="1" stop-color="#3C2811" />
        </linearGradient>
        <linearGradient id="paint20_linear_91_26" x1="0" y1="100.982" x2="1.78193" y2="100.982"
            gradientUnits="userSpaceOnUse">
            <stop stop-color="#3C2811" />
            <stop offset="0.5" stop-color="#C6BE7E" />
            <stop offset="1" stop-color="#3C2811" />
        </linearGradient>
    </defs>
</svg>